<?xml version="1.0" standalone="no"?>
<!DOCTYPE svg PUBLIC "-//W3C//DTD SVG 20010904//EN"
 "http://www.w3.org/TR/2001/REC-SVG-20010904/DTD/svg10.dtd">
<svg version="1.0" xmlns="http://www.w3.org/2000/svg"
 width="537.000000pt" height="537.000000pt" viewBox="0 0 537.000000 537.000000"
 preserveAspectRatio="xMidYMid meet">
<metadata>
Created by potrace 1.11, written by Peter Selinger 2001-2013
</metadata>
<g transform="translate(0.000000,537.000000) scale(0.100000,-0.100000)"
fill="#000000" stroke="none">
<path d="M1816 5269 c3 -6 -53 -21 -59 -16 -2 1 -15 -6 -30 -16 -15 -9 -27
-15 -27 -12 0 8 -25 -13 -91 -78 -33 -31 -59 -64 -59 -72 0 -8 -3 -15 -8 -15
-15 0 -45 -87 -49 -146 -6 -70 9 -148 42 -213 l22 -45 -36 -35 c-46 -45 -101
-115 -101 -130 0 -6 -4 -11 -9 -11 -10 0 -44 -70 -68 -138 -22 -67 -20 -165 6
-232 42 -112 162 -219 286 -258 40 -12 215 -5 240 10 17 10 90 32 98 30 4 -1
7 3 7 8 0 5 3 9 8 8 4 0 16 2 27 6 11 4 37 14 58 21 l38 14 -18 -23 c-10 -13
-54 -66 -97 -117 -43 -52 -111 -137 -150 -189 -39 -52 -74 -96 -78 -98 -5 -2
-8 -7 -8 -12 0 -4 -24 -43 -53 -86 -53 -80 -168 -274 -180 -307 -8 -23 -47
-37 -69 -26 -9 5 -23 7 -30 4 -7 -2 -31 -7 -53 -10 -57 -8 -118 -25 -132 -37
-7 -6 -13 -7 -13 -2 0 5 -4 4 -8 -3 -4 -6 -14 -13 -21 -15 -21 -5 -115 -88
-151 -134 -56 -70 -95 -212 -86 -308 9 -95 14 -116 51 -191 45 -92 117 -166
199 -205 l31 -15 2 -100 3 -100 -48 -51 c-26 -27 -58 -65 -72 -83 -14 -17 -33
-42 -44 -54 -30 -35 -81 -117 -116 -187 -190 -377 -137 -739 154 -1049 42 -44
162 -151 201 -179 46 -33 167 -107 175 -107 3 -1 14 -6 25 -11 56 -31 200 -77
280 -90 43 -7 255 -13 267 -7 4 2 -33 44 -82 93 -50 49 -90 93 -90 98 0 6 -7
12 -15 16 -8 3 -15 12 -15 21 0 8 -4 15 -8 15 -5 0 -18 18 -31 40 -19 34 -20
40 -6 40 9 0 14 -4 11 -8 -2 -4 10 -14 27 -22 18 -7 35 -17 38 -22 3 -5 14
-10 23 -12 10 -1 22 -9 27 -17 5 -8 9 -10 9 -6 0 5 12 0 28 -11 43 -30 259
-131 273 -128 3 0 13 -5 22 -13 10 -7 17 -10 17 -5 0 5 4 4 8 -1 10 -14 202
-76 213 -69 5 3 9 1 9 -4 0 -5 6 -9 13 -10 17 -1 69 -12 85 -17 26 -9 146 -26
221 -31 159 -10 182 -10 189 0 14 19 2 184 -18 251 -36 119 -46 146 -68 195
-23 50 -91 164 -117 198 -19 25 -160 167 -188 190 -15 12 -32 22 -37 22 -6 0
-10 3 -10 8 0 4 -10 12 -23 18 -12 6 -47 24 -77 40 -30 15 -58 27 -62 26 -5
-1 -8 3 -8 9 0 5 -4 7 -10 4 -6 -3 -10 -1 -10 4 0 6 -5 11 -11 11 -20 0 -142
62 -204 103 -100 67 -175 156 -240 284 l-33 66 34 55 c92 142 82 133 120 117
19 -8 34 -11 34 -8 0 3 6 1 13 -5 6 -5 59 -9 117 -7 115 2 159 14 244 67 47
28 136 109 136 123 0 3 9 18 20 33 42 56 68 159 66 260 l-1 94 58 34 c32 19
60 34 63 34 3 0 12 6 19 13 33 29 45 37 45 32 0 -7 189 121 205 139 6 6 27 22
47 36 21 14 38 28 38 33 0 4 4 7 9 7 5 0 24 13 43 29 83 73 103 90 105 87 2
-2 -9 -34 -23 -72 -73 -193 -89 -282 -70 -383 20 -101 124 -235 221 -283 74
-37 157 -50 225 -35 14 3 35 8 47 11 12 2 32 10 45 17 13 8 25 14 28 14 30 5
127 74 199 141 l44 42 41 -23 c54 -30 131 -47 196 -45 68 2 80 4 80 14 0 5 3
6 6 3 11 -11 121 53 165 96 50 50 82 99 103 160 83 244 -59 611 -344 887 -114
111 -115 112 -170 150 -19 13 -37 27 -40 30 -3 3 -26 18 -53 34 -26 15 -46 30
-43 34 20 35 75 169 132 319 37 101 78 193 90 206 12 14 37 51 55 83 30 53 33
66 33 140 0 131 -19 160 -264 404 -242 241 -261 254 -385 252 -100 -1 -115 -3
-115 -15 0 -6 -3 -7 -7 -4 -3 4 -12 2 -20 -4 -7 -6 -13 -8 -13 -3 0 5 -4 4 -8
-1 -11 -16 -112 -90 -122 -90 -4 0 -12 -3 -16 -7 -4 -5 -13 -8 -20 -8 -7 0
-25 -5 -41 -11 -15 -6 -28 -9 -29 -7 0 2 -8 -3 -17 -10 -8 -7 -27 -15 -42 -18
-15 -3 -45 -14 -66 -25 -22 -11 -39 -17 -39 -15 0 6 -52 -15 -133 -54 -62 -31
-87 -37 -87 -21 0 8 -87 141 -99 151 -4 3 -22 25 -41 50 -44 57 -178 190 -191
190 -6 0 -7 5 -3 12 4 6 3 8 -3 5 -6 -4 -17 1 -24 10 -8 9 -48 38 -89 65 -41
26 -81 53 -87 58 -7 6 -13 8 -13 4 0 -3 -6 -2 -13 4 -17 14 -172 81 -200 86
-53 10 -83 20 -89 30 -5 7 -8 7 -8 -2 0 -7 -5 -10 -11 -6 -14 8 -198 11 -193
3z m174 -164 c30 -5 58 -9 62 -9 3 -1 10 -4 14 -8 4 -5 20 -8 36 -8 15 0 28
-4 28 -10 0 -5 6 -10 13 -10 19 0 67 -24 67 -33 0 -5 4 -6 9 -3 5 3 20 -3 34
-15 15 -11 28 -19 29 -17 7 7 151 -97 209 -150 61 -56 227 -252 213 -252 -4 0
0 -8 8 -17 44 -51 43 -57 -33 -107 -39 -25 -74 -46 -78 -46 -4 0 -22 19 -39
43 -17 23 -43 56 -57 72 -15 17 -30 35 -33 41 -25 39 -229 194 -256 194 -3 0
-21 -31 -41 -69 -33 -67 -34 -70 -15 -76 11 -4 20 -11 20 -16 0 -5 6 -9 13 -9
6 0 26 -13 43 -28 17 -15 50 -43 73 -62 22 -19 41 -38 41 -42 0 -4 12 -20 28
-35 39 -40 92 -110 92 -122 0 -6 -4 -11 -10 -11 -5 0 -10 4 -10 8 0 5 -12 15
-27 23 -16 8 -30 17 -33 20 -10 14 -164 89 -182 89 -10 0 -18 5 -18 10 0 6
-10 10 -23 10 -13 0 -28 5 -35 12 -7 7 -12 9 -12 5 0 -3 -12 -2 -27 4 -63 25
-70 22 -82 -39 -5 -32 -12 -67 -15 -79 -3 -14 0 -23 7 -24 21 -1 41 -7 72 -20
17 -6 35 -13 40 -14 31 -4 195 -85 195 -96 0 -5 7 -9 15 -9 23 0 18 -14 -18
-47 -30 -27 -39 -30 -107 -31 -73 -1 -88 -3 -120 -14 -8 -3 -55 -21 -105 -39
-184 -67 -264 -80 -316 -53 -15 7 -29 10 -32 7 -4 -3 -9 2 -13 11 -3 9 -11 16
-17 16 -17 0 -71 62 -91 103 -20 43 -22 104 -6 157 12 41 110 191 121 184 9
-5 21 25 14 36 -3 4 1 7 9 6 8 0 43 23 79 53 l66 54 -48 47 c-26 26 -57 68
-69 93 -33 69 -28 166 10 206 10 12 16 21 13 21 -3 0 12 16 32 35 20 19 41 35
45 35 13 0 22 3 47 16 14 7 28 11 33 8 4 -3 8 -2 8 3 0 10 57 9 130 -2z m1709
-364 c17 -1 81 -58 218 -193 209 -208 240 -251 228 -316 -8 -41 -32 -92 -43
-92 -4 0 -32 25 -61 55 l-54 55 -53 -52 c-29 -29 -54 -56 -54 -60 0 -5 31 -39
70 -78 l69 -69 -13 -38 c-8 -21 -26 -69 -41 -108 -14 -38 -30 -82 -35 -97 -21
-68 -126 -267 -195 -368 -81 -120 -90 -132 -120 -147 -28 -14 -145 -17 -145
-4 0 6 -3 10 -7 10 -39 -6 -113 51 -143 110 -37 74 -30 175 17 244 l26 38 -53
54 c-62 63 -71 61 -119 -22 -37 -65 -53 -120 -55 -193 -3 -62 22 -165 49 -207
10 -15 18 -29 16 -31 -2 -4 84 -88 117 -114 12 -10 22 -15 22 -13 0 3 13 -1
28 -9 15 -8 44 -17 65 -21 20 -4 37 -11 37 -15 0 -4 -43 -47 -96 -96 -52 -49
-110 -102 -128 -119 -27 -25 -80 -69 -144 -120 -7 -5 -19 -16 -27 -23 -13 -12
-17 -9 -29 19 -21 50 -6 139 27 161 7 4 -6 25 -31 52 -23 25 -42 42 -42 39 0
-4 -7 3 -16 15 l-16 23 -25 -33 c-76 -101 -88 -226 -33 -341 l20 -40 -21 -16
c-11 -9 -35 -27 -52 -40 -18 -14 -26 -18 -19 -11 18 20 17 22 -39 79 l-51 52
-36 -17 c-20 -9 -58 -19 -83 -21 -104 -8 -184 105 -150 210 7 19 30 53 53 75
l41 41 -113 115 -113 114 -41 -40 c-65 -64 -124 -79 -192 -48 -85 37 -119 136
-75 219 l21 42 -56 55 -56 55 -29 -39 c-90 -122 -79 -297 24 -403 55 -58 80
-76 95 -71 7 2 12 -2 12 -9 0 -7 3 -10 6 -6 3 3 23 -1 43 -8 47 -16 152 -11
194 10 29 14 57 20 57 11 0 -2 -8 -24 -18 -48 -61 -142 9 -332 146 -398 26
-12 54 -26 63 -30 9 -5 28 -7 43 -6 15 2 29 0 31 -4 5 -9 102 11 124 25 9 5
12 3 10 -4 -3 -7 -8 -12 -13 -11 -5 1 -12 -2 -15 -7 -3 -5 -62 -42 -131 -82
-186 -109 -344 -217 -409 -279 -10 -10 -42 -40 -72 -68 -167 -158 -286 -328
-441 -631 -35 -68 -66 -123 -69 -123 -13 0 -88 189 -124 315 -48 163 -66 285
-69 464 -2 113 5 199 30 351 17 103 81 313 130 430 31 72 149 304 177 349 64
100 198 297 220 323 l22 27 53 -25 c70 -33 114 -40 187 -29 22 3 46 6 53 7 6
1 12 5 12 10 0 5 4 7 9 4 5 -3 20 3 34 14 14 11 28 20 32 20 3 0 14 7 22 16
15 14 11 20 -38 70 l-55 55 -32 -17 c-47 -23 -106 -29 -142 -14 -34 14 -38 25
-12 39 9 6 13 11 9 11 -7 0 71 93 163 193 61 66 180 187 181 184 0 -1 3 -13 5
-27 9 -52 63 -149 106 -192 48 -48 134 -101 149 -92 5 3 9 0 9 -7 0 -7 3 -10
6 -6 3 3 18 1 32 -4 28 -11 134 -13 172 -4 14 4 31 7 38 7 6 1 12 5 12 10 0 5
5 6 10 3 6 -3 10 -2 10 3 0 5 6 9 13 9 19 0 107 62 107 74 0 6 -23 35 -51 64
-44 46 -53 52 -65 40 -8 -7 -23 -17 -34 -20 -11 -3 -20 -10 -20 -14 0 -9 -5
-10 -93 -16 -99 -7 -164 28 -223 120 -15 23 -19 48 -19 114 l0 83 40 35 c22
19 60 47 85 63 25 16 50 33 56 38 12 10 104 62 179 102 61 32 153 70 265 110
47 17 92 33 100 37 36 15 48 8 112 -58 37 -38 70 -69 72 -69 2 0 29 25 60 55
l56 56 -55 53 c-30 29 -55 56 -55 60 0 3 13 14 29 24 26 16 51 18 130 13z
m281 -1431 c3 -3 25 -20 50 -37 25 -17 55 -41 67 -52 12 -12 24 -21 27 -21 15
0 150 -148 198 -216 156 -221 217 -445 162 -589 -15 -39 -56 -84 -102 -111
-49 -29 -109 -47 -117 -35 -2 4 -14 7 -27 6 -32 -3 -105 39 -159 91 l-46 45
-36 -47 c-20 -26 -37 -51 -37 -56 0 -5 -4 -6 -10 -3 -5 3 -10 1 -10 -5 0 -10
-34 -44 -99 -99 -13 -11 -28 -18 -34 -14 -5 3 -7 1 -3 -5 6 -10 -84 -59 -121
-65 -10 -1 -22 -5 -28 -8 -36 -19 -134 22 -185 77 -85 92 -92 164 -35 325 72
202 83 247 83 315 -1 61 2 69 32 102 l33 36 23 -30 c13 -16 24 -37 24 -46 0
-10 4 -18 8 -18 14 0 50 -90 97 -246 2 -8 16 -9 47 -2 24 5 53 10 66 11 12 0
22 5 22 10 0 4 5 5 10 2 39 -24 -49 222 -131 365 -8 14 -17 27 -20 30 -8 6
-29 47 -29 55 0 9 61 -35 83 -59 9 -10 17 -16 17 -12 0 4 21 -13 46 -38 25
-25 50 -46 55 -46 5 0 9 -3 9 -8 0 -4 20 -32 45 -62 25 -30 51 -67 57 -82 l12
-26 67 34 c37 18 70 37 72 41 9 15 -87 147 -159 218 -39 39 -98 93 -132 119
l-61 48 50 74 51 74 31 -17 c18 -8 34 -19 37 -23z m-2550 -387 c0 -4 -18 -55
-40 -113 -50 -134 -87 -262 -105 -369 -9 -47 -17 -86 -19 -89 -8 -7 -66 41
-72 60 -3 10 -9 18 -14 18 -4 0 -18 21 -31 48 -18 37 -23 65 -23 132 -1 74 2
92 27 140 16 30 38 65 50 78 30 33 108 83 118 76 5 -3 9 -1 9 5 0 9 28 16 78
20 12 0 22 -2 22 -6z m1117 -804 c-7 -64 -46 -144 -89 -186 -35 -33 -99 -72
-133 -80 -65 -15 -96 -20 -100 -13 -2 4 -15 5 -29 3 -13 -3 -27 0 -30 6 -7 11
87 111 104 111 5 0 10 3 10 8 0 12 251 201 269 202 2 0 1 -23 -2 -51z m-1258
-431 c7 -35 20 -88 29 -118 21 -72 22 -83 13 -90 -4 -3 -25 -32 -47 -65 -76
-114 -106 -218 -103 -352 1 -43 4 -84 7 -91 4 -12 62 -14 62 -2 0 4 10 6 23 5
30 -3 78 15 71 26 -10 16 -7 132 5 182 6 27 21 67 32 89 l21 41 67 -134 c68
-138 142 -268 151 -269 3 0 17 29 30 65 13 36 27 65 31 65 3 0 18 -17 33 -38
27 -39 148 -162 160 -162 7 0 23 -12 56 -42 10 -9 21 -13 25 -10 3 4 10 0 15
-8 5 -8 13 -15 17 -16 4 0 21 -6 37 -13 61 -25 68 -22 93 53 13 37 23 69 21
70 -35 16 -104 52 -108 56 -3 3 -17 12 -33 20 -70 40 -227 229 -229 277 0 10
12 44 29 76 l29 58 44 -68 c25 -37 50 -75 56 -85 6 -10 14 -15 17 -11 4 3 7 1
7 -5 0 -23 166 -164 199 -169 8 -1 17 -6 20 -11 7 -11 180 -96 196 -97 6 0 12
-3 15 -6 3 -4 30 -19 60 -34 60 -30 131 -78 164 -111 45 -44 126 -141 126
-151 0 -6 6 -16 14 -22 33 -27 126 -259 126 -313 0 -11 -10 -14 -42 -12 -24 1
-43 3 -43 4 0 1 -15 3 -34 6 -100 13 -243 53 -381 107 -58 23 -108 41 -112 39
-5 -1 -8 2 -8 8 0 5 -5 10 -11 10 -16 0 -102 43 -111 55 -4 5 -8 7 -8 3 0 -6
-26 8 -140 73 -14 8 -28 19 -32 24 -5 7 -8 7 -8 0 0 -6 -3 -6 -8 0 -4 6 -32
26 -62 45 -30 19 -60 39 -66 45 -7 5 -24 19 -40 30 -34 25 -134 105 -152 122
-8 7 -17 11 -22 8 -4 -3 -7 -60 -5 -128 4 -132 15 -179 74 -295 17 -34 30 -62
27 -62 -12 0 -130 57 -181 88 -178 106 -353 290 -426 449 -86 186 -77 401 25
608 46 93 155 257 167 249 3 -2 12 -32 18 -66z"/>
<path d="M3143 4425 c-29 -29 -53 -57 -53 -62 0 -5 24 -32 53 -61 l53 -52 57
58 57 58 -57 56 -58 57 -52 -54z"/>
<path d="M3701 3853 l-55 -54 55 -55 c36 -36 60 -53 70 -48 7 3 34 28 58 55
l44 49 -57 55 c-31 30 -57 55 -59 54 -1 -1 -26 -26 -56 -56z"/>
<path d="M2552 3607 c-25 -27 -59 -99 -67 -147 -27 -145 47 -285 182 -347 61
-28 151 -38 208 -22 19 6 37 9 39 7 2 -2 12 4 22 12 11 9 31 22 46 29 44 22
42 39 -11 92 -54 54 -61 56 -96 33 -25 -16 -91 -22 -134 -11 -28 8 -78 58 -91
93 -15 40 -12 86 10 129 11 22 20 41 20 42 0 2 -24 28 -53 58 l-54 55 -21 -23z"/>
<path d="M1805 2856 c-114 -150 -58 -388 112 -475 50 -25 156 -45 178 -33 5 3
22 7 38 9 15 2 38 8 50 15 12 7 25 12 30 13 4 0 23 13 42 28 l35 28 -56 56
-57 55 -39 -22 c-80 -45 -182 -9 -220 77 -22 49 -19 93 10 145 l19 33 -53 52
c-29 29 -55 53 -58 53 -3 0 -17 -15 -31 -34z"/>
</g>
</svg>
